<svg xmlns="http://www.w3.org/2000/svg" viewBox="0 0 900 560">
<defs><linearGradient id="bg" x1="0" y1="0" x2="1" y2="1"><stop offset="0%" stop-color="#151923"/><stop offset="100%" stop-color="#07080c"/></linearGradient>
<style>.title{font:900 44px Arial,sans-serif;fill:#f5f7fb}.sub{font:700 24px Arial,sans-serif;fill:#a8b0c1}.label{font:900 20px Arial,sans-serif;fill:#fff}.small{font:800 18px Arial,sans-serif;fill:#a8b0c1}.machine{fill:none;stroke:#3a4356;stroke-width:18;stroke-linecap:round;stroke-linejoin:round}.machine2{fill:none;stroke:#566178;stroke-width:11;stroke-linecap:round;stroke-linejoin:round}.person{fill:none;stroke:#e9edf7;stroke-width:14;stroke-linecap:round;stroke-linejoin:round}.personFill{fill:#e9edf7}.bar{stroke:#a8b0c1;stroke-width:16;stroke-linecap:round;fill:none}.seat{fill:#232a3a;stroke:#6a7488;stroke-width:8}.plate{fill:#202634;stroke:#8a94a8;stroke-width:7}.arrow{fill:none;stroke:#ef3d3d;stroke-width:9;stroke-linecap:round;stroke-linejoin:round;stroke-dasharray:14 10;marker-end:url(#arrowhead)}.highlight{fill:#ef3d3d}</style>
<marker id="arrowhead" markerWidth="10" markerHeight="10" refX="8" refY="3" orient="auto"><path d="M0,0 L0,6 L9,3 z" fill="#ef3d3d"/></marker></defs>
<rect width="900" height="560" rx="42" fill="url(#bg)"/><rect x="28" y="28" width="844" height="504" rx="36" fill="none" stroke="#242b3a" stroke-width="3"/>
<text x="46" y="76" class="title">Beinstrecker</text><text x="46" y="112" class="sub">Quadrizeps Maschine</text>
          <path d="M220 380H570L700 455M280 380L240 455" class="machine"/>
          <rect x="260" y="300" width="270" height="55" rx="20" class="seat"/>
          <circle cx="320" cy="230" r="32" class="personFill"/>
          <path d="M350 260L465 335L650 380" class="person"/>
          <circle cx="680" cy="385" r="26" class="plate"/>
          <path d="M585 365C620 340 650 320 690 305" class="arrow"/>
          <rect x="480" y="305" width="130" height="28" rx="14" class="highlight"/>
          <text x="490" y="295" class="small">Beine</text>
        
<rect x="46" y="474" width="370" height="52" rx="18" fill="#111722" stroke="#293040" stroke-width="3"/><circle cx="76" cy="500" r="12" fill="#ef3d3d"/><text x="99" y="506" class="label">Zielmuskel: Quadrizeps</text></svg>