<svg xmlns="http://www.w3.org/2000/svg" viewBox="0 0 900 560">
  <defs>
    <linearGradient id="bg" x1="0" y1="0" x2="1" y2="1"><stop offset="0%" stop-color="#151923"/><stop offset="100%" stop-color="#07080c"/></linearGradient>
    <style>
      .title{font:900 44px Arial,sans-serif;fill:#f5f7fb}
      .sub{font:700 24px Arial,sans-serif;fill:#a8b0c1}
      .label{font:900 20px Arial,sans-serif;fill:#fff}
      .note{font:800 18px Arial,sans-serif;fill:#a8b0c1}
      .machine{fill:none;stroke:#3a4356;stroke-width:18;stroke-linecap:round;stroke-linejoin:round}
      .machine2{fill:none;stroke:#566178;stroke-width:11;stroke-linecap:round;stroke-linejoin:round}
      .person{fill:none;stroke:#e9edf7;stroke-width:14;stroke-linecap:round;stroke-linejoin:round}
      .thin{fill:none;stroke:#e9edf7;stroke-width:9;stroke-linecap:round;stroke-linejoin:round}
      .personFill{fill:#e9edf7}
      .bar{stroke:#a8b0c1;stroke-width:16;stroke-linecap:round;fill:none}
      .seat{fill:#232a3a;stroke:#6a7488;stroke-width:8}
      .plate{fill:#202634;stroke:#8a94a8;stroke-width:7}
      .arrow{fill:none;stroke:#ef3d3d;stroke-width:9;stroke-linecap:round;stroke-linejoin:round;stroke-dasharray:14 10;marker-end:url(#arrowhead)}
      .highlight{fill:#ef3d3d}
    </style>
    <marker id="arrowhead" markerWidth="10" markerHeight="10" refX="8" refY="3" orient="auto"><path d="M0,0 L0,6 L9,3 z" fill="#ef3d3d"/></marker>
  </defs>
  <rect width="900" height="560" rx="42" fill="url(#bg)"/>
  <rect x="28" y="28" width="844" height="504" rx="36" fill="none" stroke="#242b3a" stroke-width="3"/>
  <text x="46" y="76" class="title">Beinpresse</text>
  <text x="46" y="112" class="sub">Kontrolliert wegen Meniskus</text>
  
        <path class="machine" d="M230 450L610 170M610 170L720 380M310 450H760"/>
        <rect class="seat" x="255" y="360" width="170" height="70" rx="22"/>
        <circle class="personFill" cx="335" cy="270" r="32"/>
        <path class="person" d="M355 300L440 365L610 250M440 365L360 430"/>
        <path class="bar" d="M550 250H700"/>
        <path class="arrow" d="M565 255C615 235 655 220 700 205"/>
        <rect class="highlight" x="500" y="285" width="130" height="26" rx="13"/>
        <text x="512" y="275" class="note">Beine</text>
  <rect x="46" y="474" width="370" height="52" rx="18" fill="#111722" stroke="#293040" stroke-width="3"/>
  <circle cx="76" cy="500" r="12" fill="#ef3d3d"/>
  <text x="99" y="506" class="label">Zielmuskel: Beine</text>
</svg>