<svg xmlns="http://www.w3.org/2000/svg" viewBox="0 0 900 560">
  <defs>
    <linearGradient id="bg" x1="0" y1="0" x2="1" y2="1"><stop offset="0%" stop-color="#151923"/><stop offset="100%" stop-color="#07080c"/></linearGradient>
    <style>
      .title{font:900 44px Arial,sans-serif;fill:#f5f7fb}
      .sub{font:700 24px Arial,sans-serif;fill:#a8b0c1}
      .label{font:900 20px Arial,sans-serif;fill:#fff}
      .note{font:800 18px Arial,sans-serif;fill:#a8b0c1}
      .machine{fill:none;stroke:#3a4356;stroke-width:18;stroke-linecap:round;stroke-linejoin:round}
      .machine2{fill:none;stroke:#566178;stroke-width:11;stroke-linecap:round;stroke-linejoin:round}
      .person{fill:none;stroke:#e9edf7;stroke-width:14;stroke-linecap:round;stroke-linejoin:round}
      .thin{fill:none;stroke:#e9edf7;stroke-width:9;stroke-linecap:round;stroke-linejoin:round}
      .personFill{fill:#e9edf7}
      .bar{stroke:#a8b0c1;stroke-width:16;stroke-linecap:round;fill:none}
      .seat{fill:#232a3a;stroke:#6a7488;stroke-width:8}
      .plate{fill:#202634;stroke:#8a94a8;stroke-width:7}
      .arrow{fill:none;stroke:#ef3d3d;stroke-width:9;stroke-linecap:round;stroke-linejoin:round;stroke-dasharray:14 10;marker-end:url(#arrowhead)}
      .highlight{fill:#ef3d3d}
    </style>
    <marker id="arrowhead" markerWidth="10" markerHeight="10" refX="8" refY="3" orient="auto"><path d="M0,0 L0,6 L9,3 z" fill="#ef3d3d"/></marker>
  </defs>
  <rect width="900" height="560" rx="42" fill="url(#bg)"/>
  <rect x="28" y="28" width="844" height="504" rx="36" fill="none" stroke="#242b3a" stroke-width="3"/>
  <text x="46" y="76" class="title">Dips</text>
  <text x="46" y="112" class="sub">Brust/Trizeps</text>
  
        <path class="machine" d="M570 130V430M735 130V430M570 160H735"/>
        <rect class="seat" x="360" y="345" width="270" height="54" rx="18"/>
        <circle class="personFill" cx="430" cy="255" r="34"/>
        <path class="person" d="M460 282L590 340L690 238M480 322L390 350M468 372L415 445M585 372L660 440"/>
        <circle class="plate" cx="710" cy="232" r="27"/>
        <path class="arrow" d="M580 292C625 265 660 245 700 230"/>
        <rect class="highlight" x="260" y="220" width="170" height="26" rx="13"/>
        <text x="275" y="210" class="note">Brust drückt</text>
  <rect x="46" y="474" width="370" height="52" rx="18" fill="#111722" stroke="#293040" stroke-width="3"/>
  <circle cx="76" cy="500" r="12" fill="#ef3d3d"/>
  <text x="99" y="506" class="label">Zielmuskel: Brust/Trizeps</text>
</svg>