<svg xmlns="http://www.w3.org/2000/svg" viewBox="0 0 900 560">
<defs><linearGradient id="bg" x1="0" y1="0" x2="1" y2="1"><stop offset="0%" stop-color="#151923"/><stop offset="100%" stop-color="#07080c"/></linearGradient>
<style>.title{font:900 44px Arial,sans-serif;fill:#f5f7fb}.sub{font:700 24px Arial,sans-serif;fill:#a8b0c1}.label{font:900 20px Arial,sans-serif;fill:#fff}.small{font:800 18px Arial,sans-serif;fill:#a8b0c1}.machine{fill:none;stroke:#3a4356;stroke-width:18;stroke-linecap:round;stroke-linejoin:round}.machine2{fill:none;stroke:#566178;stroke-width:11;stroke-linecap:round;stroke-linejoin:round}.person{fill:none;stroke:#e9edf7;stroke-width:14;stroke-linecap:round;stroke-linejoin:round}.personFill{fill:#e9edf7}.bar{stroke:#a8b0c1;stroke-width:16;stroke-linecap:round;fill:none}.seat{fill:#232a3a;stroke:#6a7488;stroke-width:8}.plate{fill:#202634;stroke:#8a94a8;stroke-width:7}.arrow{fill:none;stroke:#ef3d3d;stroke-width:9;stroke-linecap:round;stroke-linejoin:round;stroke-dasharray:14 10;marker-end:url(#arrowhead)}.highlight{fill:#ef3d3d}</style>
<marker id="arrowhead" markerWidth="10" markerHeight="10" refX="8" refY="3" orient="auto"><path d="M0,0 L0,6 L9,3 z" fill="#ef3d3d"/></marker></defs>
<rect width="900" height="560" rx="42" fill="url(#bg)"/><rect x="28" y="28" width="844" height="504" rx="36" fill="none" stroke="#242b3a" stroke-width="3"/>
<text x="46" y="76" class="title">Seitheben</text><text x="46" y="112" class="sub">Seitliche Schulter</text>
          <circle cx="450" cy="180" r="34" class="personFill"/>
          <path d="M450 215V355M435 245L260 220M465 245L640 220M450 355L385 470M450 355L515 470" class="person"/>
          <circle cx="245" cy="218" r="24" class="plate"/><circle cx="655" cy="218" r="24" class="plate"/>
          <path d="M300 315C250 290 230 260 220 225" class="arrow"/>
          <path d="M600 315C650 290 670 260 680 225" class="arrow"/>
          <rect x="340" y="235" width="220" height="28" rx="14" class="highlight"/>
          <text x="353" y="226" class="small">seitliche Schulter</text>
        
<rect x="46" y="474" width="370" height="52" rx="18" fill="#111722" stroke="#293040" stroke-width="3"/><circle cx="76" cy="500" r="12" fill="#ef3d3d"/><text x="99" y="506" class="label">Zielmuskel: Seitliche Schulter</text></svg>